<?xml version="1.0" standalone="no"?>
<!DOCTYPE svg PUBLIC "-//W3C//DTD SVG 20010904//EN"
 "http://www.w3.org/TR/2001/REC-SVG-20010904/DTD/svg10.dtd">
<svg version="1.0" xmlns="http://www.w3.org/2000/svg"
 width="260.000000pt" height="260.000000pt" viewBox="0 0 260.000000 260.000000"
 preserveAspectRatio="xMidYMid meet">
<metadata>
Created by potrace 1.14, written by Peter Selinger 2001-2017
</metadata>
<g transform="translate(0.000000,260.000000) scale(0.100000,-0.100000)"
fill="#000000" stroke="none">
<path d="M940 2310 c0 -11 11 -43 25 -72 159 -341 297 -672 460 -1105 46 -122
96 -244 110 -272 14 -28 25 -53 25 -56 0 -4 -71 60 -158 142 -176 165 -346
318 -562 503 -80 69 -191 165 -246 215 -56 50 -141 122 -190 160 -49 38 -118
94 -154 125 -88 76 -110 90 -142 90 -45 0 -47 12 86 -490 54 -205 153 -571
226 -835 21 -77 41 -162 45 -190 11 -87 14 -95 37 -95 20 0 21 3 15 73 -3 40
-23 138 -45 218 -59 208 -169 614 -207 759 -19 69 -45 170 -60 225 -73 277
-73 276 -56 263 9 -7 45 -38 81 -68 36 -31 101 -83 145 -116 44 -34 127 -104
185 -156 58 -52 173 -152 255 -223 215 -184 499 -440 652 -588 88 -86 138
-128 150 -125 34 6 27 54 -26 166 -28 59 -66 150 -85 202 -92 255 -243 634
-321 805 -48 105 -98 217 -112 250 -62 151 -96 215 -115 215 -11 0 -18 -7 -18
-20z"/>
<path d="M1280 2265 c0 -9 17 -37 38 -63 20 -26 47 -70 59 -97 165 -374 224
-509 260 -600 19 -49 46 -112 60 -140 14 -27 29 -61 34 -75 4 -14 22 -59 39
-100 35 -82 120 -318 142 -390 26 -89 75 -58 133 83 35 86 44 98 124 172 149
139 215 209 298 316 44 57 93 115 107 128 25 24 36 71 16 71 -19 0 -83 -65
-160 -164 -96 -124 -147 -178 -274 -292 -92 -83 -101 -95 -144 -186 -26 -54
-49 -98 -52 -98 -3 0 -11 17 -17 37 -13 46 -85 245 -106 293 -8 19 -25 60 -37
90 -12 30 -33 80 -47 110 -14 30 -45 102 -68 160 -44 109 -119 283 -174 405
-18 39 -38 84 -45 100 -54 122 -89 188 -116 219 -33 37 -70 48 -70 21z"/>
</g>
</svg>
